# 工具箱
## 服务端配置信息
Plex 服务端
- 网址：[https://plex.taikong.co](https://plex.taikong.co)
- 端口：32400
Emby 服务端
- 网址：[https://emby.taikong.co:8920](https://emby.taikong.co:8920/)
- 端口：8920
## 测速
[Speed-X](https://librespeed.taikong.co/) ：测试你当前与服务器之间的连接速度    
[SpeedTest](https://www.speedtest.cn/)：测试你当前自身的网络速度  
> 网速在10MB/s就基本可以播放媒体服务器中的绝大多数视频了，除了部分4K高码率的资源

## 高码率资源
阿凡达：水之道，当前媒体库中码率最高的资源，用来测试你当前网络的最大负载能力```
General
Unique ID : 122323877253896349150831762333114671077 (0x5C06B8C8A68359D43296AA13FF919FE5)
Complete name : Q:\Avatar The Way of Water 2022 V2 UHD BluRay REMUX 2160p HEVC HDR Atmos TrueHD7.1 3Audio-CHD\Avatar The Way of Water 2022 V2 UHD BluRay REMUX 2160p HEVC HDR Atmos TrueHD7.1 3Audio-CHD.mkv
Format : Matroska
Format version : Version 2
File size : 77.5 GiB
Duration : 3 h 12 min
Overall bit rate mode : Variable
Overall bit rate : 57.6 Mb/s
Movie name : Avatar: The Way of Water
Encoded date : UTC 2023-06-24 10:44:11
Writing application : MakeMKV v1.17.3 win(x64-release)
Writing library : libmakemkv v1.17.3 (1.3.10/1.5.2) win(x64-release)

Video
ID : 1
ID in the original source medium : 4113 (0x1011)
Format : HEVC
Format/Info : High Efficiency Video Coding
Format profile : Main 10@L5.1@High
HDR format : SMPTE ST 2086, HDR10 compatible
Codec ID : V_MPEGH/ISO/HEVC
Duration : 3 h 12 min
Bit rate : 43.9 Mb/s
Width : 3 840 pixels
Height : 2 160 pixels
Display aspect ratio : 16:9
Frame rate mode : Constant
Frame rate : 23.976 (24000/1001) FPS
Color space : YUV
Chroma subsampling : 4:2:0 (Type 2)
Bit depth : 10 bits
Bits/(Pixel*Frame) : 0.221
Stream size : 59.1 GiB (76%)
Writing library : ATEME Titan File 3.9.6 (4.9.6.2)  
Language : English
Default : No
Forced : No
Color range : Limited
Color primaries : BT.2020
Transfer characteristics : PQ
Matrix coefficients : BT.2020 non-constant
Mastering display color primaries : BT.2020
Mastering display luminance : min: 0.0050 cd/m2, max: 1000 cd/m2
Original source medium : Blu-ray
SEI_rbsp_stop_one_bit : Missing

Audio #1
ID : 2
ID in the original source medium : 4352 (0x1100)
Format : MLP FBA 16-ch
Format/Info : Meridian Lossless Packing FBA with 16-channel presentation
Commercial name : Dolby TrueHD with Dolby Atmos
Codec ID : A_TRUEHD
Duration : 3 h 12 min
Bit rate mode : Variable
Bit rate : 4 815 kb/s
Maximum bit rate : 4 974 kb/s
Channel(s) : 8 channels
Channel layout : L R C LFE Ls Rs Lb Rb
Sampling rate : 48.0 kHz
Frame rate : 1 200.000 FPS (40 SPF)
Bit depth : 24 bits
Compression mode : Lossless
Stream size : 6.48 GiB (8%)
Title : 环绕声 7.1
Language : English
Default : Yes
Forced : No
Original source medium : Blu-ray
Number of dynamic objects : 13
Bed channel count : 1 channel
Bed channel configuration : LFE

Audio #2
ID : 3
ID in the original source medium : 4357 (0x1105)
Format : MLP FBA 16-ch
Format/Info : Meridian Lossless Packing FBA with 16-channel presentation
Commercial name : Dolby TrueHD with Dolby Atmos
Codec ID : A_TRUEHD
Duration : 3 h 12 min
Bit rate mode : Variable
Bit rate : 5 402 kb/s
Maximum bit rate : 7 500 kb/s
Channel(s) : 8 channels
Channel layout : L R C LFE Ls Rs Lb Rb
Sampling rate : 48.0 kHz
Frame rate : 1 200.000 FPS (40 SPF)
Bit depth : 24 bits
Compression mode : Lossless
Stream size : 7.27 GiB (9%)
Title : 环绕声 7.1
Language : Chinese
Default : No
Forced : No
Original source medium : Blu-ray
Number of dynamic objects : 11
Bed channel count : 1 channel
Bed channel configuration : LFE

Audio #3
ID : 4
ID in the original source medium : 4358 (0x1106)
Format : DTS XLL
Format/Info : Digital Theater Systems
Commercial name : DTS-HD Master Audio
Codec ID : A_DTS
Duration : 3 h 12 min
Bit rate mode : Variable
Bit rate : 3 129 kb/s
Channel(s) : 8 channels
Channel layout : C L R LFE Lb Rb Lss Rss
Sampling rate : 48.0 kHz
Frame rate : 93.750 FPS (512 SPF)
Bit depth : 24 bits
Compression mode : Lossless
Stream size : 4.21 GiB (5%)
Title : 环绕声 7.1
Language : Chinese
Default : No
Forced : No
Original source medium : Blu-ray

Text #1
ID : 5
ID in the original source medium : 4768 (0x12A0)
Format : PGS
Codec ID : S_HDMV/PGS
Codec ID/Info : Picture based subtitle format used on BDs/HD-DVDs
Duration : 3 h 8 min
Bit rate : 38.9 kb/s
Count of elements : 6941
Stream size : 52.6 MiB (0%)
Language : English
Default : Yes
Forced : No
Original source medium : Blu-ray

Text #2
ID : 6
ID in the original source medium : 4769 (0x12A1)
Format : PGS
Codec ID : S_HDMV/PGS
Codec ID/Info : Picture based subtitle format used on BDs/HD-DVDs
Duration : 3 h 10 min
Bit rate : 55.9 kb/s
Count of elements : 7215
Stream size : 76.3 MiB (0%)
Language : Chinese
Default : No
Forced : No
Original source medium : Blu-ray

Text #3
ID : 7
ID in the original source medium : 4770 (0x12A2)
Format : PGS
Codec ID : S_HDMV/PGS
Codec ID/Info : Picture based subtitle format used on BDs/HD-DVDs
Duration : 3 h 10 min
Bit rate : 56.5 kb/s
Count of elements : 7215
Stream size : 77.2 MiB (0%)
Language : Chinese
Default : No
Forced : No
Original source medium : Blu-ray

Text #4
ID : 8
ID in the original source medium : 4771 (0x12A3)
Format : PGS
Codec ID : S_HDMV/PGS
Codec ID/Info : Picture based subtitle format used on BDs/HD-DVDs
Duration : 3 h 10 min
Bit rate : 69.2 kb/s
Count of elements : 6432
Stream size : 94.5 MiB (0%)
Language : Chinese
Default : No
Forced : No
Original source medium : Blu-ray

Text #5
ID : 9
ID in the original source medium : 4775 (0x12A7)
Format : PGS
Codec ID : S_HDMV/PGS
Codec ID/Info : Picture based subtitle format used on BDs/HD-DVDs
Duration : 3 h 10 min
Bit rate : 69.8 kb/s
Count of elements : 6432
Stream size : 95.4 MiB (0%)
Language : Chinese
Default : No
Forced : No
Original source medium : Blu-ray
```
```
General
Unique ID                                : 37327405050369638371691206737712622550 (0x1C14FF2899F3BC7F5E939B71AD63ABD6)
Complete name                            : Avatar.The.Way.of.Water.2022.UHD.BluRay.2160p.REMUX.HEVC.Atmos.TrueHD 7.1-UBits.mkv
Format                                   : Matroska
Format version                           : Version 4
File size                                : 66.6 GiB
Duration                                 : 3 h 12 min
Overall bit rate mode                    : Variable
Overall bit rate                         : 49.5 Mb/s
Frame rate                               : 23.976 FPS
Movie name                               : Avatar: The Way of Water
Encoded date                             : 2023-11-26 13:31:29 UTC
Writing application                      : mkvmerge v80.0 ('Roundabout') 64-bit
Writing library                          : libebml v1.4.4 + libmatroska v1.7.1
Cover                                    : Yes
Attachments                              : cover.jpg

Video
ID                                       : 1
ID in the original source medium         : 4113 (0x1011)
Format                                   : HEVC
Format/Info                              : High Efficiency Video Coding
Format profile                           : Main 10@L5.1@High
HDR format                               : SMPTE ST 2086, HDR10 compatible
Codec ID                                 : V_MPEGH/ISO/HEVC
Duration                                 : 3 h 12 min
Bit rate                                 : 43.9 Mb/s
Width                                    : 3 840 pixels
Height                                   : 2 160 pixels
Display aspect ratio                     : 16:9
Frame rate mode                          : Constant
Frame rate                               : 23.976 (24000/1001) FPS
Color space                              : YUV
Chroma subsampling                       : 4:2:0 (Type 2)
Bit depth                                : 10 bits
Bits/(Pixel*Frame)                       : 0.221
Stream size                              : 59.1 GiB (89%)
Title                                    : 主视频
Writing library                          : ATEME Titan File 3.9.6 (4.9.6.2)        
Default                                  : Yes
Forced                                   : No
Color range                              : Limited
Color primaries                          : BT.2020
Transfer characteristics                 : PQ
Matrix coefficients                      : BT.2020 non-constant
Mastering display color primaries        : BT.2020
Mastering display luminance              : min: 0.0050 cd/m2, max: 1000 cd/m2
Original source medium                   : Blu-ray

Audio #1
ID                                       : 2
ID in the original source medium         : 4352 (0x1100)
Format                                   : MLP FBA 16-ch
Format/Info                              : Meridian Lossless Packing FBA with 16-channel presentation
Commercial name                          : Dolby TrueHD with Dolby Atmos
Codec ID                                 : A_TRUEHD
Duration                                 : 3 h 12 min
Bit rate mode                            : Variable
Bit rate                                 : 4 820 kb/s
Maximum bit rate                         : 4 974 kb/s
Channel(s)                               : 8 channels
Channel layout                           : L R C LFE Ls Rs Lb Rb
Sampling rate                            : 48.0 kHz
Frame rate                               : 1 200.000 FPS (40 SPF)
Compression mode                         : Lossless
Stream size                              : 6.48 GiB (10%)
Title                                    : 英语TrueHD Atmos 7.1
Language                                 : English
Default                                  : Yes
Forced                                   : No
Original source medium                   : Blu-ray
Number of dynamic objects                : 13
Bed channel count                        : 1 channel
Bed channel configuration                : LFE

Audio #2
ID                                       : 3
ID in the original source medium         : 4352 (0x1100)
Format                                   : AC-3
Format/Info                              : Audio Coding 3
Commercial name                          : Dolby Digital
Codec ID                                 : A_AC3
Duration                                 : 3 h 12 min
Bit rate mode                            : Constant
Bit rate                                 : 640 kb/s
Channel(s)                               : 6 channels
Channel layout                           : L R C LFE Ls Rs
Sampling rate                            : 48.0 kHz
Frame rate                               : 31.250 FPS (1536 SPF)
Compression mode                         : Lossy
Stream size                              : 882 MiB (1%)
Title                                    : 英语DD 5.1
Language                                 : English
Service kind                             : Complete Main
Default                                  : Yes
Forced                                   : No
Original source medium                   : Blu-ray

Text #1
ID                                       : 4
ID in the original source medium         : 4768 (0x12A0)
Format                                   : PGS
Muxing mode                              : zlib
Codec ID                                 : S_HDMV/PGS
Codec ID/Info                            : Picture based subtitle format used on BDs/HD-DVDs
Duration                                 : 3 h 8 min
Bit rate                                 : 38.9 kb/s
Frame rate                               : 0.612 FPS
Count of elements                        : 6941
Stream size                              : 52.6 MiB (0%)
Title                                    : 英文
Language                                 : English
Default                                  : Yes
Forced                                   : No
Original source medium                   : Blu-ray

Text #2
ID                                       : 5
ID in the original source medium         : 4775 (0x12A7)
Format                                   : PGS
Muxing mode                              : zlib
Codec ID                                 : S_HDMV/PGS
Codec ID/Info                            : Picture based subtitle format used on BDs/HD-DVDs
Duration                                 : 3 h 2 min
Bit rate                                 : 18.7 kb/s
Frame rate                               : 0.441 FPS
Count of elements                        : 4820
Stream size                              : 24.4 MiB (0%)
Title                                    : 简体中文
Language                                 : Chinese
Default                                  : Yes
Forced                                   : No
Original source medium                   : Blu-ray

Text #3
ID                                       : 6
ID in the original source medium         : 4776 (0x12A8)
Format                                   : PGS
Muxing mode                              : zlib
Codec ID                                 : S_HDMV/PGS
Codec ID/Info                            : Picture based subtitle format used on BDs/HD-DVDs
Duration                                 : 3 h 2 min
Bit rate                                 : 19.0 kb/s
Frame rate                               : 0.441 FPS
Count of elements                        : 4820
Stream size                              : 24.8 MiB (0%)
Title                                    : 繁体中文
Language                                 : Chinese
Default                                  : Yes
Forced                                   : No
Original source medium                   : Blu-ray

Text #4
ID                                       : 7
ID in the original source medium         : 4777 (0x12A9)
Format                                   : PGS
Muxing mode                              : zlib
Codec ID                                 : S_HDMV/PGS
Codec ID/Info                            : Picture based subtitle format used on BDs/HD-DVDs
Duration                                 : 3 h 2 min
Bit rate                                 : 31.4 kb/s
Frame rate                               : 0.441 FPS
Count of elements                        : 4822
Stream size                              : 40.9 MiB (0%)
Title                                    : 简英双语
Language                                 : Chinese
Default                                  : Yes
Forced                                   : No
Original source medium                   : Blu-ray

Text #5
ID                                       : 8
ID in the original source medium         : 4778 (0x12AA)
Format                                   : PGS
Muxing mode                              : zlib
Codec ID                                 : S_HDMV/PGS
Codec ID/Info                            : Picture based subtitle format used on BDs/HD-DVDs
Duration                                 : 3 h 2 min
Bit rate                                 : 32.4 kb/s
Frame rate                               : 0.441 FPS
Count of elements                        : 4822
Stream size                              : 42.2 MiB (0%)
Title                                    : 繁英双语
Language                                 : Chinese
Default                                  : Yes
Forced                                   : No
Original source medium                   : Blu-ray
```
```
[RELEASE INFORMATION]
RELEASE.NAME...: Avatar.The.Way.of.Water.2022.UHD.Blu-ray.2160p.10bit.DoVi.2Audio.TrueHD(Atmos).7.1.x265-beAst.mkv
RELEASE.TIME...: Jun 18 2023
RUN.TIME.......: 3:12:34.168 (h:m:s.ms)
VIDEO.CODEC....: HEVC, x265 Main 10 @ L5.1@High, 24000/1001 fps @ 26200 kbps
HDR............: Dolby Vision, Version 1.0, dvhe.08.06, BL+ RPU
x265 LOG.......: Ref=4, B-frame=8, me=3, SubMe=7
BIT.RATE.......: 26200 kbps , 50.2 G
RESOLUTION.....: 3840 x 2076, 1.850: 1
AUDIO1.........: English Dolby TrueHD(Atmos) Audio 7.1 @ 4820 kbps
AUDIO2.........: English Dolby Digital Audio 5.1 @ 640 kbps
AUDIO3.........: Mandarin DTS-HD Master Audio 7.1 @ 5260/1509 kbps 国语次世代重混 by HDR
CHAPTERS.......: YES
COVER..........: YES
SUBTiTLES1.....: Eng/SUP 原盘英语字幕
SUBTiTLES2.....: Chs/SUP 简体中字
SUBTiTLES3.....: Cht/SUP 繁体中字
SUBTiTLES4.....: Chs/SUP 简英双语
SUBTiTLES5.....: Cht/SUP 繁英双语
SUBTiTLES6.....: Chs/SUP 国配简英双语
SUBTiTLES7.....: Cht/SUP 国配繁英双语
SUBTiTLES8.....: Chs/SUP 国配简中特效 by KKYY&NICKY&猪小乐&爱国语
SUBTiTLES9.....: Cht/SUP 国配繁中特效 by KKYY&NICKY&猪小乐&爱国语
SUBTiTLES10....: Chs/SUP 简英双语特效 by KKYY&NICKY&猪小乐&爱国语
SUBTiTLES11....: Cht/SUP 繁英双语特效 by KKYY&NICKY&猪小乐&爱国语
RIP.SOURCE1.....: Avatar The Way of Water 2022 UHD Blu-ray 2160p HEVC Atmos TrueHD7.1-DiY@HDHome (Thanks)
RIP.SOURCE2.....: Avatar.The.Way.of.Water.2022.UHD.BluRay.2160p.HEVC.Atmos.TrueHD.7.1-DIY@HDR (Thanks)
ENCODER........: beAst
```
